<?xml version="1.0" encoding="UTF-8"?>
<svg xmlns="http://www.w3.org/2000/svg" xmlns:xlink="http://www.w3.org/1999/xlink" viewBox="0 0 60 60" width="60px" height="60px">
<g id="surface9257082">
<path style=" stroke:none;fill-rule:nonzero;fill:rgb(12.54902%,50.588238%,88.627452%);fill-opacity:1;" d="M 30 60 C 13.429688 60 0 46.570312 0 30 C 0 13.429688 13.429688 0 30 0 C 46.570312 0 60 13.429688 60 30 C 60 46.570312 46.570312 60 30 60 Z M 30 60 "/>
<path style=" stroke:none;fill-rule:nonzero;fill:rgb(100%,100%,100%);fill-opacity:1;" d="M 49.601562 17.84375 C 48.15625 18.484375 46.609375 18.914062 44.980469 19.109375 C 46.640625 18.113281 47.917969 16.539062 48.515625 14.660156 C 46.964844 15.582031 45.242188 16.25 43.410156 16.613281 C 41.941406 15.050781 39.851562 14.070312 37.539062 14.070312 C 33.097656 14.070312 29.496094 17.675781 29.496094 22.113281 C 29.496094 22.746094 29.570312 23.359375 29.703125 23.945312 C 23.019531 23.613281 17.09375 20.410156 13.125 15.542969 C 12.4375 16.730469 12.039062 18.113281 12.039062 19.585938 C 12.039062 22.378906 13.457031 24.839844 15.617188 26.28125 C 14.296875 26.238281 13.058594 25.875 11.972656 25.273438 C 11.972656 25.308594 11.972656 25.339844 11.972656 25.375 C 11.972656 29.273438 14.746094 32.523438 18.425781 33.261719 C 17.75 33.445312 17.039062 33.542969 16.304688 33.542969 C 15.789062 33.542969 15.28125 33.492188 14.792969 33.398438 C 15.816406 36.59375 18.785156 38.921875 22.304688 38.988281 C 19.554688 41.144531 16.085938 42.429688 12.316406 42.429688 C 11.667969 42.429688 11.027344 42.390625 10.398438 42.316406 C 13.957031 44.597656 18.183594 45.929688 22.726562 45.929688 C 37.519531 45.929688 45.609375 33.675781 45.609375 23.046875 C 45.609375 22.699219 45.601562 22.351562 45.585938 22.007812 C 47.15625 20.871094 48.523438 19.453125 49.601562 17.84375 Z M 49.601562 17.84375 "/>
</g>
</svg>
