<?xml version="1.0" encoding="UTF-8"?>
<svg xmlns="http://www.w3.org/2000/svg" xmlns:xlink="http://www.w3.org/1999/xlink" viewBox="0 0 60 60" width="60px" height="60px">
<g id="surface9267622">
<path style=" stroke:none;fill-rule:nonzero;fill:rgb(12.54902%,50.588238%,88.627452%);fill-opacity:1;" d="M 30 60 C 13.429688 60 0 46.570312 0 30 C 0 13.429688 13.429688 0 30 0 C 46.570312 0 60 13.429688 60 30 C 60 46.570312 46.570312 60 30 60 Z M 30 60 "/>
<path style=" stroke:none;fill-rule:nonzero;fill:rgb(100%,100%,100%);fill-opacity:1;" d="M 44.761719 18.25 C 41.226562 15.410156 35.636719 14.925781 35.398438 14.90625 C 35.027344 14.875 34.671875 15.085938 34.519531 15.425781 C 34.511719 15.4375 34.199219 16.34375 33.898438 17.21875 C 38.007812 17.9375 40.800781 19.535156 40.949219 19.621094 C 41.644531 20.027344 41.878906 20.921875 41.472656 21.617188 C 41.203125 22.082031 40.714844 22.339844 40.210938 22.339844 C 39.960938 22.339844 39.710938 22.277344 39.480469 22.144531 C 39.441406 22.117188 35.34375 19.789062 30.003906 19.789062 C 24.660156 19.789062 20.5625 22.121094 20.523438 22.144531 C 19.824219 22.546875 18.933594 22.308594 18.527344 21.613281 C 18.125 20.917969 18.359375 20.027344 19.054688 19.621094 C 19.203125 19.535156 22.003906 17.933594 26.125 17.214844 C 25.808594 16.332031 25.488281 15.4375 25.480469 15.425781 C 25.328125 15.085938 24.972656 14.867188 24.601562 14.90625 C 24.363281 14.925781 18.773438 15.40625 15.191406 18.289062 C 13.316406 20.019531 9.574219 30.132812 9.574219 38.878906 C 9.574219 39.035156 9.617188 39.183594 9.691406 39.320312 C 12.277344 43.855469 19.320312 45.042969 20.925781 45.09375 C 20.933594 45.097656 20.945312 45.097656 20.953125 45.097656 C 21.234375 45.097656 21.503906 44.960938 21.671875 44.730469 L 23.40625 42.378906 C 19.597656 41.460938 17.585938 40.019531 17.464844 39.929688 C 16.816406 39.453125 16.675781 38.539062 17.152344 37.890625 C 17.628906 37.246094 18.539062 37.101562 19.1875 37.574219 C 19.242188 37.609375 22.957031 40.210938 30 40.210938 C 37.070312 40.210938 40.777344 37.601562 40.8125 37.574219 C 41.460938 37.105469 42.375 37.246094 42.847656 37.898438 C 43.320312 38.542969 43.183594 39.453125 42.539062 39.925781 C 42.417969 40.015625 40.414062 41.457031 36.617188 42.375 L 38.332031 44.730469 C 38.496094 44.960938 38.765625 45.09375 39.046875 45.09375 C 39.058594 45.09375 39.066406 45.09375 39.074219 45.09375 C 40.683594 45.042969 47.726562 43.855469 50.308594 39.316406 C 50.382812 39.183594 50.425781 39.03125 50.425781 38.878906 C 50.425781 30.132812 46.683594 20.019531 44.761719 18.25 Z M 24.164062 35.835938 C 22.550781 35.835938 21.246094 34.203125 21.246094 32.1875 C 21.246094 30.171875 22.550781 28.539062 24.164062 28.539062 C 25.777344 28.539062 27.082031 30.171875 27.082031 32.1875 C 27.082031 34.203125 25.777344 35.835938 24.164062 35.835938 Z M 35.835938 35.835938 C 34.222656 35.835938 32.917969 34.203125 32.917969 32.1875 C 32.917969 30.171875 34.222656 28.539062 35.835938 28.539062 C 37.449219 28.539062 38.753906 30.171875 38.753906 32.1875 C 38.753906 34.203125 37.449219 35.835938 35.835938 35.835938 Z M 35.835938 35.835938 "/>
</g>
</svg>
